<svg xmlns="http://www.w3.org/2000/svg" xmlns:xlink="http://www.w3.org/1999/xlink" width="1087.88" height="1276.653" viewBox="0 0 1087.88 1276.653">
  <defs>
    <clipPath id="clip-path">
      <path id="Subtraction_4" data-name="Subtraction 4" d="M88.819-461.665H74.338L-369.14,814.988h12.671Zm38.013,0H114.161L-329.318,814.988h12.671Zm39.823,0H153.983L-291.305,814.988h14.481Zm39.823,0H193.806L-251.483,814.988H-237Zm39.823,0H231.819L-211.66,814.988h14.481Zm39.823,0H271.641L-173.648,814.988h16.291Zm39.823,0H311.464L-133.825,814.988h16.291Zm39.823,0H349.476L-94,814.988h14.481Zm39.823,0H389.3L-55.99,814.988H-39.7Zm39.823,0H429.121L-16.168,814.988H.124Zm39.823,0h-18.1L23.655,814.988H39.946Zm38.012,0H506.956L63.478,814.988H79.768Zm39.823,0H546.779L101.49,814.988h18.1Zm39.822,0h-18.1L141.313,814.988h18.1Zm39.823,0h-18.1L181.135,814.988h18.1Zm39.823,0h-18.1L219.147,814.988h19.911Zm36.2,0H702.449L258.97,814.988h19.911Z" transform="translate(1316.14 3061.338)" fill="#f3f2f8"/>
    </clipPath>
  </defs>
  <g id="Mask_Group_18" data-name="Mask Group 18" transform="translate(-947 -2599.673)" clip-path="url(#clip-path)">
    <rect id="Rectangle_593" data-name="Rectangle 593" width="1317" height="613" rx="80" transform="translate(463 2781)" fill="#f3f2f8"/>
  </g>
</svg>
