<svg xmlns="http://www.w3.org/2000/svg" width="82.868" height="78.687" viewBox="0 0 82.868 78.687">
  <g id="calendar-yellow" transform="translate(-18.1 -30.1)">
    <g id="Group_2332" data-name="Group 2332" transform="translate(20.588 39.569)">
      <path id="Path_8374" data-name="Path 8374" d="M38.37,201.707V160H33v41.707a5.913,5.913,0,0,0,5.907,5.907h5.37A5.913,5.913,0,0,1,38.37,201.707Z" transform="translate(-32.821 -148.386)" fill="#f4f4f4"/>
      <path id="Path_8375" data-name="Path 8375" d="M40.592,83.644V83H37.907A5.913,5.913,0,0,0,32,88.907v5.907h5.37V88.907A5.937,5.937,0,0,1,40.592,83.644Z" transform="translate(-32 -83)" fill="#f4f4f4"/>
    </g>
    <g id="Group_2334" data-name="Group 2334" transform="translate(23.488 55.479)">
      <g id="Group_2333" data-name="Group 2333" transform="translate(0)">
        <path id="Path_8376" data-name="Path 8376" d="M50.169,190.84h6.8a1.963,1.963,0,0,0,1.969-1.969v-6.8a1.963,1.963,0,0,0-1.969-1.969h-6.8a1.963,1.963,0,0,0-1.969,1.969v6.8A1.963,1.963,0,0,0,50.169,190.84Zm.537-8.234h5.728v5.728H50.706Z" transform="translate(-48.2 -180.1)" fill="#080d42"/>
        <path id="Path_8377" data-name="Path 8377" d="M124.2,182.069v6.8a1.963,1.963,0,0,0,1.969,1.969h6.8a1.963,1.963,0,0,0,1.969-1.969v-6.8a1.963,1.963,0,0,0-1.969-1.969h-6.8A1.975,1.975,0,0,0,124.2,182.069Zm2.506.537h5.728v5.728h-5.728Z" transform="translate(-110.596 -180.1)" fill="#080d42"/>
        <path id="Path_8378" data-name="Path 8378" d="M203.169,190.84h6.8a1.963,1.963,0,0,0,1.969-1.969v-6.8a1.963,1.963,0,0,0-1.969-1.969h-6.8a1.963,1.963,0,0,0-1.969,1.969v6.8A1.963,1.963,0,0,0,203.169,190.84Zm.537-8.234h5.728v5.728h-5.728Z" transform="translate(-173.813 -180.1)" fill="#080d42"/>
        <path id="Path_8379" data-name="Path 8379" d="M279.169,190.84h6.8a1.963,1.963,0,0,0,1.969-1.969v-6.8a1.963,1.963,0,0,0-1.969-1.969h-6.8a1.963,1.963,0,0,0-1.969,1.969v6.8A1.963,1.963,0,0,0,279.169,190.84Zm.537-8.234h5.728v5.728h-5.728Z" transform="translate(-236.209 -180.1)" fill="#080d42"/>
        <path id="Path_8380" data-name="Path 8380" d="M354.2,182.069v6.8a1.963,1.963,0,0,0,1.969,1.969h6.8a1.963,1.963,0,0,0,1.969-1.969v-6.8a1.963,1.963,0,0,0-1.969-1.969h-6.8A1.975,1.975,0,0,0,354.2,182.069Zm2.506.537h5.728v5.728h-5.728Z" transform="translate(-299.426 -180.1)" fill="#080d42"/>
        <path id="Path_8381" data-name="Path 8381" d="M51.169,275.84h6.8a1.963,1.963,0,0,0,1.969-1.969v-6.8a1.963,1.963,0,0,0-1.969-1.969h-6.8a1.963,1.963,0,0,0-1.969,1.969v6.8A1.963,1.963,0,0,0,51.169,275.84Zm.537-8.234h5.728v5.728H51.706Z" transform="translate(-49.021 -249.885)" fill="#080d42"/>
        <path id="Path_8382" data-name="Path 8382" d="M133.971,265.1h-6.8a1.963,1.963,0,0,0-1.969,1.969v6.8a1.963,1.963,0,0,0,1.969,1.969h6.8a1.963,1.963,0,0,0,1.969-1.969v-6.8A2,2,0,0,0,133.971,265.1Zm-.537,8.234h-5.728v-5.728h5.728Z" transform="translate(-111.417 -249.885)" fill="#080d42"/>
        <path id="Path_8383" data-name="Path 8383" d="M210.971,265.1h-6.8a1.963,1.963,0,0,0-1.969,1.969v6.8a1.963,1.963,0,0,0,1.969,1.969h6.8a1.963,1.963,0,0,0,1.969-1.969v-6.8A2,2,0,0,0,210.971,265.1Zm-.537,8.234h-5.728v-5.728h5.728Z" transform="translate(-174.634 -249.885)" fill="#080d42"/>
        <path id="Path_8384" data-name="Path 8384" d="M49.2,353.05a1.963,1.963,0,0,0,1.969,1.969h6.8a1.963,1.963,0,0,0,1.969-1.969v-6.981a1.963,1.963,0,0,0-1.969-1.969h-6.8a1.963,1.963,0,0,0-1.969,1.969Zm2.506-6.444h5.728v5.907H51.706Z" transform="translate(-49.021 -314.744)" fill="#080d42"/>
        <path id="Path_8385" data-name="Path 8385" d="M133.971,355.019a1.963,1.963,0,0,0,1.969-1.969v-6.981a1.963,1.963,0,0,0-1.969-1.969h-6.8a1.963,1.963,0,0,0-1.969,1.969v6.981a1.963,1.963,0,0,0,1.969,1.969Zm-6.265-8.413h5.728v5.907h-5.728Z" transform="translate(-111.417 -314.744)" fill="#080d42"/>
        <path id="Path_8386" data-name="Path 8386" d="M287.687,270.47a1.245,1.245,0,0,0,1.253-1.253v-2.148a1.963,1.963,0,0,0-1.969-1.969h-6.8a1.963,1.963,0,0,0-1.969,1.969v6.8a1.963,1.963,0,0,0,1.969,1.969h1.969a1.253,1.253,0,1,0,0-2.506h-1.432v-5.728h5.728v1.611A1.245,1.245,0,0,0,287.687,270.47Z" transform="translate(-237.03 -249.885)" fill="#080d42"/>
        <path id="Path_8387" data-name="Path 8387" d="M330.93,311.669a1.409,1.409,0,0,0,.662-.179l8.664-5.334a1.238,1.238,0,0,0,.591-1.074V291.353a1.253,1.253,0,1,0-2.506,0v13.031l-8.073,4.976a1.245,1.245,0,0,0,.662,2.309Z" transform="translate(-279.289 -268.41)" fill="#080d42"/>
      </g>
    </g>
    <path id="Path_8388" data-name="Path 8388" d="M116.453,77.606h39.2a1.253,1.253,0,1,0,0-2.506h-39.2a1.253,1.253,0,1,0,0,2.506Z" transform="translate(-80.633 -36.945)" fill="#555151"/>
    <path id="Path_8389" data-name="Path 8389" d="M92.326,111.27V82.581A7.214,7.214,0,0,0,85.114,75.2H81.351a1.216,1.216,0,1,0,0,2.431h3.763a4.806,4.806,0,0,1,4.773,4.949V87.53H20.556V82.581a5.267,5.267,0,0,1,5.313-4.949h3.223a1.216,1.216,0,1,0,0-2.431h-3.24A7.682,7.682,0,0,0,18.1,82.581v48.175a7.719,7.719,0,0,0,7.752,7.468h41.18A18.8,18.8,0,1,0,92.326,111.27ZM25.852,135.792a5.328,5.328,0,0,1-5.313-5.036V89.944H89.869V109.95a18.787,18.787,0,0,0-24.388,25.859H25.852Zm56.3,7.607a16.342,16.342,0,1,1,16.392-16.342h0A16.405,16.405,0,0,1,82.152,143.4Z" transform="translate(0 -37.027)" fill="#555151"/>
    <path id="Path_8390" data-name="Path 8390" d="M78.657,46.21h.752a4.469,4.469,0,0,0,4.457-4.457v-7.2A4.469,4.469,0,0,0,79.409,30.1h-.752A4.469,4.469,0,0,0,74.2,34.557v7.2A4.446,4.446,0,0,0,78.657,46.21ZM76.706,34.557a1.956,1.956,0,0,1,1.951-1.951h.752a1.956,1.956,0,0,1,1.951,1.951v7.2A1.956,1.956,0,0,1,79.409,43.7h-.752a1.956,1.956,0,0,1-1.951-1.951Z" transform="translate(-46.058)" fill="#080d42"/>
    <path id="Path_8391" data-name="Path 8391" d="M338.657,46.21h.752a4.469,4.469,0,0,0,4.457-4.457v-7.2a4.469,4.469,0,0,0-4.457-4.457h-.752a4.469,4.469,0,0,0-4.457,4.457v7.2A4.446,4.446,0,0,0,338.657,46.21Zm-1.951-11.653a1.956,1.956,0,0,1,1.951-1.951h.752a1.956,1.956,0,0,1,1.951,1.951v7.2a1.956,1.956,0,0,1-1.951,1.951h-.752a1.956,1.956,0,0,1-1.951-1.951Z" transform="translate(-261.23)" fill="#080d42"/>
  </g>
</svg>
