<svg xmlns="http://www.w3.org/2000/svg" width="61.711" height="86.406" viewBox="0 0 61.711 86.406">
  <g id="Innovation-yellow" transform="translate(-69.837 0.019)">
    <path id="Path_8364" data-name="Path 8364" d="M178.479,259.5a5.845,5.845,0,0,1-4.973-8.909L186.082,230.2a9.282,9.282,0,0,0,1.4-4.9v-3.453a1.237,1.237,0,0,0-1.234-1.234,1.237,1.237,0,0,1-1.234-1.234V217.3h-5.975a1.16,1.16,0,0,0-1.163,1.163v4.508a1.237,1.237,0,0,0,1.234,1.234,1.237,1.237,0,0,1,1.234,1.234v3.435a9.282,9.282,0,0,1-1.4,4.9l-12.576,20.393a5.843,5.843,0,0,0,4.973,8.909h31.144a5.8,5.8,0,0,0,5.384-3.578Z" transform="translate(-78.542 -178.443)" fill="#f4f4f4"/>
    <path id="Path_8365" data-name="Path 8365" d="M249.245,249.378H233.789a1.789,1.789,0,1,1,0-3.578h15.474a1.789,1.789,0,1,1-.018,3.578Z" transform="translate(-133.154 -201.845)" fill="#080d42"/>
    <path id="Path_8366" data-name="Path 8366" d="M86.385,44.776a5.765,5.765,0,0,1,0-8.157l20.447-20.447a3.963,3.963,0,0,0,.877-1.342l.465-1.2L104.524,10l-1.86,4.83a3.714,3.714,0,0,1-.877,1.342L81.34,36.618a5.768,5.768,0,0,0,6.6,9.266A5.724,5.724,0,0,1,86.385,44.776Z" transform="translate(-8.057 -8.227)" fill="#f4f4f4"/>
    <path id="Path_8367" data-name="Path 8367" d="M254.44,118.538a7.334,7.334,0,0,1-5.188-12.522l3.918-3.918a1.781,1.781,0,0,1,2.522,0l3.918,3.918a7.334,7.334,0,0,1-5.17,12.522Zm0-12.665-2.665,2.665a3.769,3.769,0,1,0,5.331,0Z" transform="translate(-145.559 -83.42)" fill="#080d42"/>
    <g id="Group_34" data-name="Group 34" transform="translate(69.837 -0.019)">
      <g id="Group_33" data-name="Group 33" transform="translate(0 0)">
        <g id="Group_32" data-name="Group 32">
          <path id="Path_8368" data-name="Path 8368" d="M188.193,224.88a7.605,7.605,0,0,1-1.109-3.971v-2.952a3.043,3.043,0,0,0,2.5-2.952v-4.49a3,3,0,0,0-3.041-2.916H170.841a3,3,0,0,0-3.041,2.916v4.49a3.011,3.011,0,0,0,2.5,2.952v2.952a7.605,7.605,0,0,1-1.109,3.971L156.62,245.273a7.6,7.6,0,0,0,6.494,11.592h31.144a7.618,7.618,0,0,0,6.494-11.61Zm9.606,26.35a4,4,0,0,1-3.542,2.057H163.113a4.03,4.03,0,0,1-3.452-6.154l12.558-20.393a11.18,11.18,0,0,0,1.646-5.832v-3.452a3.045,3.045,0,0,0-2.5-2.97V211.16h14.633v3.327a3.047,3.047,0,0,0-2.5,2.97v3.452a11.124,11.124,0,0,0,1.646,5.85l12.576,20.375A3.926,3.926,0,0,1,197.8,251.23Z" transform="translate(-140.169 -170.46)" fill="#555151"/>
          <path id="Path_8369" data-name="Path 8369" d="M103.855,16.889l4.83-1.86a1.8,1.8,0,0,0,1.109-1.288,1.773,1.773,0,0,0-.483-1.628L97.719.5a1.773,1.773,0,0,0-2.916.626l-1.86,4.83a2.151,2.151,0,0,1-.465.716L72.013,27.139a7.552,7.552,0,0,0,10.68,10.68l20.447-20.465A2.151,2.151,0,0,1,103.855,16.889Zm-3.238-2.057L80.17,35.279a3.984,3.984,0,0,1-5.635-5.635L94.982,9.215a5.481,5.481,0,0,0,1.27-1.968l.877-2.272,7.728,7.71-2.272.877A5.567,5.567,0,0,0,100.617,14.832Z" transform="translate(-69.837 0.019)" fill="#555151"/>
        </g>
      </g>
    </g>
  </g>
</svg>
