<svg xmlns="http://www.w3.org/2000/svg" width="56.052" height="71.989" viewBox="0 0 56.052 71.989">
  <g id="security-yellow" transform="translate(-41.1 0.025)">
    <path id="Path_8358" data-name="Path 8358" d="M129.28,162.116a1.325,1.325,0,0,1-1.02-.481l-7.119-8.332a1.351,1.351,0,0,1,2.059-1.751l6.254,7.331L145,146.241a1.34,1.34,0,0,1,1.693,2.078l-16.567,13.469A1.175,1.175,0,0,1,129.28,162.116Z" transform="translate(-64.378 -117.879)" fill="#080d42"/>
    <path id="Path_8359" data-name="Path 8359" d="M64.46,70.251l3.656,1.6a1.315,1.315,0,0,0,1.078,0l4.118-1.77A38.889,38.889,0,0,0,97.152,34.211V15.739a1.339,1.339,0,0,0-.712-1.193L69.386.134a1.388,1.388,0,0,0-1.289,0l-26.3,14.431a1.351,1.351,0,0,0-.693,1.174V34.558A39.005,39.005,0,0,0,64.46,70.251ZM43.794,16.528,68.751,2.847,94.439,16.528V34.173A36.2,36.2,0,0,1,72.233,67.557h-.019L68.635,69.1l-3.117-1.366A36.253,36.253,0,0,1,43.775,34.519Z" transform="translate(0 0)" fill="#555151"/>
    <path id="Path_8360" data-name="Path 8360" d="M89.312,116.108h0l-3.6,1.559L82.6,116.3A36.253,36.253,0,0,1,60.853,83.089V69.6L55.1,72.756v18.03A36.284,36.284,0,0,0,76.843,124l3.117,1.366,3.579-1.539h0A36.467,36.467,0,0,0,101.146,108.1,36.566,36.566,0,0,1,89.312,116.108Z" transform="translate(-11.306 -56.228)" fill="#f4f4f4"/>
  </g>
</svg>
