<svg xmlns="http://www.w3.org/2000/svg" width="77.949" height="65.004" viewBox="0 0 77.949 65.004">
  <g id="Icon_feather-users" data-name="Icon feather-users" transform="translate(0.423 -2)">
    <path id="Path_8396" data-name="Path 8396" d="M3209.1,2479.141s4.422-17.537,22.169-17.356-5.263-5.65-5.263-5.65l-16.906,6.174-3.435,12.492,1.632,2.869Z" transform="translate(-3204.855 -2413.153)" fill="#f4f4f4"/>
    <path id="Path_8392" data-name="Path 8392" d="M55.281,42.668V35.945A13.445,13.445,0,0,0,41.836,22.5H14.945A13.445,13.445,0,0,0,1.5,35.945v6.723" transform="translate(0.077 22.336)" fill="none" stroke="#555151" stroke-linecap="round" stroke-linejoin="round" stroke-width="4"/>
    <path id="Path_8397" data-name="Path 8397" d="M30.5,17.945c0,7.426-5.149,13.445-11.5,13.445S7.5,25.371,7.5,17.945,12.649,4.5,19,4.5s11.5,6.02,11.5,13.445Z" transform="translate(9.811 0)" fill="none" stroke="#efefef" stroke-linecap="round" stroke-linejoin="round" stroke-width="5"/>
    <path id="Path_8393" data-name="Path 8393" d="M34.391,17.945A13.445,13.445,0,1,1,20.945,4.5,13.445,13.445,0,0,1,34.391,17.945Z" transform="translate(7.522 0)" fill="none" stroke="#000" stroke-linecap="round" stroke-linejoin="round" stroke-width="4"/>
    <path id="Path_8394" data-name="Path 8394" d="M40.084,42.426V35.7A13.445,13.445,0,0,0,30,22.7" transform="translate(35.442 22.578)" fill="none" stroke="#555151" stroke-linecap="round" stroke-linejoin="round" stroke-width="4"/>
    <path id="Path_8395" data-name="Path 8395" d="M24,4.7a13.445,13.445,0,0,1,0,26.05" transform="translate(27.996 0.242)" fill="none" stroke="#000" stroke-linecap="round" stroke-linejoin="round" stroke-width="4"/>
  </g>
</svg>
