<svg xmlns="http://www.w3.org/2000/svg" width="188.281" height="503.553" viewBox="0 0 188.281 503.553">
  <g id="Group_3313" data-name="Group 3313" transform="translate(-812.689 -215.307)">
    <path id="Path_8007" data-name="Path 8007" d="M2899.612,341.2c3.468-1.006,63.863-55.8,138.438,4.946-12.777-1.14-14.558,5.523-7.187,8.362S3054,364.653,3054,364.653s8.834,4.3,6.846-4.237-10.473-36.293-13.494-27.6-2.24,9.117-2.24,9.117-58.5-69.084-147.052-2.587C2898.033,339.217,2896.144,342.207,2899.612,341.2Z" transform="matrix(0.985, 0.174, -0.174, 0.985, -1960.933, -592.266)" fill="#40b5ff" stroke="#100b50" stroke-width="2"/>
    <path id="Path_8008" data-name="Path 8008" d="M3084.447,649.241s1.782.955,0,4.206c-5.76,10.3-39.914,56.515-83.04,59.556s-67.33-22.657-75.455-36.661c-.791,8.372-1.173,8.82-2.142,16.465-.267,3.683-5.438,4.035-5.714-.633-.585-8.778,1.036-29.488,1.036-29.488s.508-4.509,6.02-1.8,26.837,11.446,31.552,13.03,4.566,9.665-4.463,6.367A152.877,152.877,0,0,1,2934.4,672.2s24.874,38.891,68.545,33.523,74.341-49.744,77.318-53.8S3084.447,649.241,3084.447,649.241Z" transform="translate(-1684.048 -1007.879) rotate(20)" fill="#ffc427" stroke="#140b56" stroke-width="2"/>
  </g>
</svg>
