<svg xmlns="http://www.w3.org/2000/svg" width="234" height="36.462" viewBox="0 0 234 36.462">
  <g id="Group_3311" data-name="Group 3311" transform="translate(-149 -24.864)">
    <path id="Subtraction_1" data-name="Subtraction 1" d="M36.335,36.335H0V0H36.335V36.334ZM15.859,29.407H19.7l.6,1.712H33.434L24.312,5.056h-.335L14.854,31.12h.409l.6-1.711ZM23.2,5.056h0L14.035,31.12h.409L23.568,5.056H23.2Zm-.82,0h0L13.253,31.12h.372L22.748,5.056h-.372Zm-.819,0h0L12.434,31.12h.372L21.929,5.056h-.372Zm-.783,0h0L11.614,31.12h.373L21.11,5.056h-.335Zm-.819,0h0L10.833,31.12h.335L20.291,5.056h-.335Zm-.82,0h0L10.014,31.12h.334l9.16-26.063h-.373Zm-.781,0h0L9.195,31.12H9.53L18.69,5.056h-.335Zm-.819,0h0L8.376,31.12H8.71L17.87,5.056h-.334Zm-.819,0h0L7.593,31.12h.3l9.16-26.063h-.335Zm-.782,0h0L6.775,31.12H7.11L16.232,5.056h-.3Zm-.82,0h0L5.955,31.12H6.29L15.413,5.056h-.3Zm-.818,0h0L5.173,31.12h.3L14.594,5.056h-.3Zm-.782,0h0L4.354,31.12h.3L13.775,5.056h-.26Zm-.819,0h0L3.535,31.12h.3L12.955,5.056h-.26Zm-.819,0h0L2.753,31.12h.261L12.137,5.056h-.261Zm-.82,0h0L1.934,31.12h.26l9.16-26.063h-.3Zm8.117,22.9h-2.83l1.415-4.021,1.415,4.02Z" transform="translate(149 24.991)" fill="#ffc427"/>
    <g id="Group_2326" data-name="Group 2326" transform="translate(190.272 24.864)">
      <path id="Path_7994" data-name="Path 7994" d="M30.114,92.028c-2.311,0-4.716-.118-6.131-1.863a3.535,3.535,0,0,1-.731-1.6,6.915,6.915,0,0,1-.094-1.391v-.921h2.523V87.31a3.463,3.463,0,0,0,.047.708c.283,1.6,2.287,1.627,4.127,1.627h3.3c1.816,0,3.679-.1,3.962-1.627.024-.236.024-.473.024-.708v-.353a1.814,1.814,0,0,0-1.368-1.91,6.486,6.486,0,0,0-1.463-.212c-.541-.047-1.131-.047-1.72-.047H30.045c-2.312,0-4.764-.1-6.179-1.84a4.139,4.139,0,0,1-.825-2.9v-.354c0-3.632,2.83-4.48,7-4.48H32.52c2.312,0,4.812.093,6.2,1.839a3.735,3.735,0,0,1,.731,1.627,7.062,7.062,0,0,1,.1,1.414v.873H37.025V79.953a4.057,4.057,0,0,0-.047-.755c-.283-1.58-2.264-1.627-4.1-1.627h-3.16c-1.3,0-3.137.024-3.821.9a2.436,2.436,0,0,0-.33,1.486l.024.33a1.736,1.736,0,0,0,1.344,1.887,6.537,6.537,0,0,0,1.462.236c.543.024,1.156.024,1.721.024h2.548c2.287,0,4.763.119,6.178,1.84a4.137,4.137,0,0,1,.826,2.9v.354c0,3.655-2.878,4.5-7,4.5Z" transform="translate(-23.04 -65.187)" fill="#fff"/>
      <path id="Path_7995" data-name="Path 7995" d="M51.018,92.028c-2.311,0-4.716-.118-6.131-1.863a3.535,3.535,0,0,1-.731-1.6,6.915,6.915,0,0,1-.094-1.391v-.921h2.523V87.31a3.463,3.463,0,0,0,.047.708c.283,1.6,2.287,1.627,4.127,1.627h3.3c1.816,0,3.679-.1,3.962-1.627.024-.236.024-.473.024-.708v-.353a1.814,1.814,0,0,0-1.368-1.91,6.486,6.486,0,0,0-1.463-.212c-.541-.047-1.131-.047-1.72-.047H50.949c-2.312,0-4.764-.1-6.179-1.84a4.139,4.139,0,0,1-.825-2.9v-.354c0-3.632,2.83-4.48,7-4.48h2.475c2.312,0,4.812.093,6.2,1.839a3.735,3.735,0,0,1,.731,1.627,7.062,7.062,0,0,1,.1,1.414v.873H57.929V79.953a4.057,4.057,0,0,0-.047-.755c-.283-1.58-2.264-1.627-4.1-1.627h-3.16c-1.3,0-3.137.024-3.821.9a2.436,2.436,0,0,0-.33,1.486l.024.33a1.736,1.736,0,0,0,1.344,1.887,6.537,6.537,0,0,0,1.462.236c.543.024,1.156.024,1.721.024h2.548c2.287,0,4.763.119,6.178,1.84a4.137,4.137,0,0,1,.826,2.9v.354c0,3.655-2.878,4.5-7,4.5Z" transform="translate(-24.336 -65.187)" fill="#fff"/>
      <path id="Path_7996" data-name="Path 7996" d="M67.372,82.146H77.654V84.5H67.372v5.142H80.838v2.382H64.848V75.212H80.885v2.406H67.372Z" transform="translate(-25.632 -65.187)" fill="#fff"/>
      <path id="Path_7997" data-name="Path 7997" d="M95.01,77.594V92.027H92.486V77.594H85.128V75.212h17.264v2.382Z" transform="translate(-26.918 -65.187)" fill="#fff"/>
      <path id="Path_7998" data-name="Path 7998" d="M113.73,92.028c-2.311,0-4.716-.118-6.131-1.863a3.545,3.545,0,0,1-.731-1.6,6.915,6.915,0,0,1-.094-1.391v-.921H109.3V87.31a3.464,3.464,0,0,0,.047.708c.283,1.6,2.287,1.627,4.127,1.627h3.3c1.816,0,3.679-.1,3.962-1.627.024-.236.024-.473.024-.708v-.353a1.814,1.814,0,0,0-1.368-1.91,6.486,6.486,0,0,0-1.463-.212c-.541-.047-1.131-.047-1.72-.047h-2.547c-2.312,0-4.764-.1-6.179-1.84a4.139,4.139,0,0,1-.825-2.9v-.354c0-3.632,2.83-4.48,7-4.48h2.475c2.312,0,4.812.093,6.2,1.839a3.735,3.735,0,0,1,.731,1.627,7.062,7.062,0,0,1,.1,1.414v.873h-2.524V79.953a4.057,4.057,0,0,0-.047-.755c-.283-1.58-2.264-1.627-4.1-1.627h-3.16c-1.3,0-3.137.024-3.821.9a2.436,2.436,0,0,0-.33,1.486l.024.33a1.736,1.736,0,0,0,1.344,1.887,6.538,6.538,0,0,0,1.462.236c.543.024,1.156.024,1.721.024h2.548c2.287,0,4.763.119,6.178,1.84a4.137,4.137,0,0,1,.826,2.9v.354c0,3.655-2.878,4.5-7,4.5Z" transform="translate(-28.225 -65.187)" fill="#fff"/>
      <path id="Path_8004" data-name="Path 8004" d="M225.123,100.922H132.078V64.7h93.045ZM137.355,74.382V91.2H139.9l-.025-6.909h5.353l6.509,6.909h3.42L148.6,84.288c3.726-.213,5.661-1.6,5.661-4.6V79c0-3.679-2.76-4.622-7.029-4.622Zm2.523,7.546V76.764h7.476c2.452,0,4.363.094,4.363,2.264v.59c0,2.075-1.627,2.311-4.033,2.311ZM165.112,85.7h7.546l3.207,5.5h2.9l-9.858-16.862L159.05,91.2h2.878Zm3.8-6.461,2.405,4.174h-4.858Zm20.846-4.858c-7.192,0-9.692,3.349-9.692,8.4s2.5,8.395,9.692,8.395c2.548,0,5.519-.5,7.311-2a4.744,4.744,0,0,0,.99-1.2l.047-.071-1.864-1.769-.118.212c-.023.071-.07.141-.093.211-.968,1.84-3.868,2.265-6.274,2.265-5.518,0-7.146-2.028-7.146-6.037s1.628-6.038,7.146-6.038c2.405,0,5.306.448,6.274,2.264.024.071.071.141.093.212l.118.236L198.1,77.66l-.047-.072a4.757,4.757,0,0,0-.99-1.2c-1.792-1.509-4.763-2-7.311-2M220.741,91.2,205.859,82.33l15.566-7.948H216.78a1.362,1.362,0,0,0-.591.093l-11.7,5.991-.025-6.084h-2.476V91.2h2.523l-.023-6.98,11.792,6.98Z" transform="translate(-32.395 -64.698)" fill="#ffc427"/>
    </g>
  </g>
</svg>
