<svg xmlns="http://www.w3.org/2000/svg" width="785.14" height="899.651" viewBox="0 0 785.14 899.651">
  <path id="Subtraction_2" data-name="Subtraction 2" d="M-38.624-461.665H-49.075L-369.14,437.986H-360Zm27.434,0h-9.145L-340.4,437.986h9.145Zm28.741,0H8.406L-312.966,437.986h10.451Zm28.741,0H37.147L-284.225,437.986h10.451Zm28.741,0H64.581L-255.484,437.986h10.451Zm28.741,0H93.322L-228.05,437.986h11.758Zm28.741,0H122.062L-199.31,437.986h11.758Zm28.741,0H149.5L-170.569,437.986h10.451Zm28.741,0H178.237L-143.135,437.986h11.758Zm28.741,0H206.978L-114.394,437.986h11.758Zm28.741,0H234.412L-85.654,437.986H-73.9Zm27.434,0H263.152L-56.913,437.986h11.758Zm28.741,0H291.893L-29.479,437.986h13.064Zm28.74,0H319.327L-.738,437.986H12.326Zm28.741,0H348.068L28,437.986H41.066Zm28.741,0H376.808L55.436,437.986h14.37Zm26.128,0H404.243L84.177,437.986h14.37Z" transform="translate(369.14 461.665)" fill="#140b56"/>
</svg>
