<svg id="asset-yellow" xmlns="http://www.w3.org/2000/svg" width="73.429" height="73.429" viewBox="0 0 73.429 73.429">
  <path id="Path_8343" data-name="Path 8343" d="M38.465,77.691,18.423,57.63a7.065,7.065,0,0,1,0-10.012L55.986,10.037,48.68,10,11.08,47.618A7.016,7.016,0,0,0,9,52.624a7.092,7.092,0,0,0,2.08,5.006L31.122,77.673a7.1,7.1,0,0,0,8.687,1.049A7.431,7.431,0,0,1,38.465,77.691Z" transform="translate(-7.164 -8.16)" fill="#f4f4f4"/>
  <path id="Path_8344" data-name="Path 8344" d="M70.466.147,40.541,0h-.018a1.935,1.935,0,0,0-1.307.534L1.634,38.152a8.942,8.942,0,0,0,0,12.625L21.676,70.82a8.942,8.942,0,0,0,12.625,0L71.92,33.2a1.822,1.822,0,0,0,.534-1.307L72.306,1.969A1.867,1.867,0,0,0,70.466.147ZM31.707,68.225a5.2,5.2,0,0,1-7.4,0L4.229,48.164a5.2,5.2,0,0,1,0-7.4L41.3,3.681l27.33.147.147,27.33Z" transform="translate(0.975)" fill="#555151"/>
  <path id="Path_8345" data-name="Path 8345" d="M240.647,69.5a8.9,8.9,0,1,0,6.331,2.613A8.989,8.989,0,0,0,240.647,69.5Zm3.7,12.644a5.238,5.238,0,1,1,1.546-3.718A5.212,5.212,0,0,1,244.347,82.144Z" transform="translate(-188.936 -56.709)" fill="#080d42"/>
</svg>
