<svg xmlns="http://www.w3.org/2000/svg" width="63.135" height="79.324" viewBox="0 0 63.135 79.324">
  <g id="Group_2335" data-name="Group 2335" transform="translate(-50)">
    <g id="Group_2335-2" data-name="Group 2335" transform="translate(50)">
      <path id="Path_8398" data-name="Path 8398" d="M113.131,17.807a1.615,1.615,0,0,0-.47-1.145L96.473.474A1.615,1.615,0,0,0,95.328,0V0H51.619A1.619,1.619,0,0,0,50,1.619V77.7a1.619,1.619,0,0,0,1.619,1.619h59.9a1.619,1.619,0,0,0,1.619-1.619v-59.9ZM96.947,5.527l10.661,10.661H96.947ZM109.9,76.086H53.238V3.238H93.709v14.57a1.619,1.619,0,0,0,1.619,1.619H109.9Z" transform="translate(-50)" fill="#555151"/>
      <path id="Path_8399" data-name="Path 8399" d="M274.4,323.168a6.76,6.76,0,0,0-5.914-3.153,9.554,9.554,0,0,0-3.709.79,9.553,9.553,0,0,0-3.709-.79,6.76,6.76,0,0,0-5.914,3.153,8.123,8.123,0,0,0-.251,7.512,8.112,8.112,0,0,0,.25,7.506,6.766,6.766,0,0,0,5.921,3.159,9.542,9.542,0,0,0,3.7-.789,9.541,9.541,0,0,0,3.7.789h0a6.766,6.766,0,0,0,5.921-3.16,8.111,8.111,0,0,0,.25-7.5A8.123,8.123,0,0,0,274.4,323.168Zm-2.753,13.315a3.552,3.552,0,0,1-3.167,1.624,6.7,6.7,0,0,1-2.979-.78,1.618,1.618,0,0,0-1.448,0,6.7,6.7,0,0,1-2.98.78,3.551,3.551,0,0,1-3.167-1.624c-.813-1.316-.732-3.167.224-5.079a1.62,1.62,0,0,0,0-1.446c-.956-1.918-1.038-3.772-.225-5.087a3.545,3.545,0,0,1,3.161-1.619,6.712,6.712,0,0,1,2.985.782,1.619,1.619,0,0,0,1.448,0,6.71,6.71,0,0,1,2.985-.782,3.545,3.545,0,0,1,3.161,1.619c.814,1.315.732,3.169-.225,5.087a1.619,1.619,0,0,0,0,1.446C272.383,333.316,272.464,335.167,271.651,336.483Z" transform="translate(-221.072 -268.209)" fill="#080d42"/>
      <rect id="Rectangle_579" data-name="Rectangle 579" width="3.238" height="3.238" transform="translate(42.09 58.424)" fill="#080d42"/>
      <rect id="Rectangle_580" data-name="Rectangle 580" width="6.475" height="3.238" transform="translate(40.471 63.281)" fill="#080d42"/>
      <rect id="Rectangle_581" data-name="Rectangle 581" width="19.785" height="3.533" transform="translate(7.066 63.593)" fill="#080d42"/>
      <rect id="Rectangle_582" data-name="Rectangle 582" width="3.533" height="2.826" transform="translate(23.317 69.952)" fill="#080d42"/>
      <rect id="Rectangle_583" data-name="Rectangle 583" width="3.533" height="2.826" transform="translate(18.371 69.952)" fill="#080d42"/>
      <rect id="Rectangle_584" data-name="Rectangle 584" width="3.533" height="2.826" transform="translate(7.066 69.952)" fill="#080d42"/>
      <rect id="Rectangle_585" data-name="Rectangle 585" width="9.892" height="3.533" transform="translate(7.066 6.359)" fill="#555151"/>
      <rect id="Rectangle_586" data-name="Rectangle 586" width="19.785" height="3.533" transform="translate(7.066 11.305)" fill="#555151"/>
      <rect id="Rectangle_587" data-name="Rectangle 587" width="26.144" height="3.533" transform="translate(18.371 24.024)" fill="#080d42"/>
      <rect id="Rectangle_588" data-name="Rectangle 588" width="48.755" height="2.826" transform="translate(7.066 31.09)" fill="#080d42"/>
      <rect id="Rectangle_589" data-name="Rectangle 589" width="48.755" height="2.826" transform="translate(7.066 37.449)" fill="#080d42"/>
      <rect id="Rectangle_590" data-name="Rectangle 590" width="38.862" height="2.826" transform="translate(7.066 43.809)" fill="#080d42"/>
      <rect id="Rectangle_591" data-name="Rectangle 591" width="3.533" height="2.826" transform="translate(52.288 43.809)" fill="#555151"/>
      <rect id="Rectangle_592" data-name="Rectangle 592" width="2.826" height="2.826" transform="translate(48.048 43.809)" fill="#080d42"/>
    </g>
  </g>
</svg>
