<svg xmlns="http://www.w3.org/2000/svg" width="68.049" height="71.14" viewBox="0 0 68.049 71.14">
  <g id="reports-yellow" transform="translate(-9.1)">
    <g id="Group_31" data-name="Group 31" transform="translate(10.396 1.232)">
      <g id="Group_30" data-name="Group 30" transform="translate(0)">
        <path id="Path_8346" data-name="Path 8346" d="M235.934,28.407v.032H224.882a6.48,6.48,0,0,1-6.482-6.482v-4.91h.178V11.1Z" transform="translate(-185.779 -10.533)" fill="#f4f4f4"/>
        <path id="Path_8347" data-name="Path 8347" d="M259.7,190.3l2.22,2.528-20.175,17.663L240.43,216.7l-3.63.211,1.7-8.038Z" transform="translate(-201.198 -160.693)" fill="#f4f4f4"/>
        <path id="Path_8348" data-name="Path 8348" d="M240.43,353.1l-3.63.211Z" transform="translate(-201.198 -297.112)" fill="#f4f4f4"/>
        <path id="Path_8349" data-name="Path 8349" d="M218.678,10.346v5.947H218.5V10.2h.032Z" transform="translate(-185.863 -9.779)" fill="#f4f4f4"/>
        <path id="Path_8350" data-name="Path 8350" d="M51.413,10.116v6.093l-5.024-.032H31.74a6.48,6.48,0,0,0-6.482,6.482V77.967A6.468,6.468,0,0,1,19.1,71.5V16.582A6.48,6.48,0,0,1,25.582,10.1H51.089Z" transform="translate(-18.776 -9.695)" fill="#f4f4f4"/>
        <path id="Path_8351" data-name="Path 8351" d="M23.582,7.6l26.333.032v.535l-.146-.146h-.032l-.324-.032H23.906a6.48,6.48,0,0,0-6.482,6.482V69.39a6.468,6.468,0,0,0,6.158,6.466v.211A6.48,6.48,0,0,1,17.1,69.584v-55.5A6.48,6.48,0,0,1,23.582,7.6Z" transform="translate(-17.1 -7.6)" fill="#f4f4f4"/>
      </g>
    </g>
    <path id="Path_8352" data-name="Path 8352" d="M60.551,58.5a1.625,1.625,0,0,0-1.621,1.621v2.9a4.876,4.876,0,0,1-4.862,4.862H16.959a4.862,4.862,0,0,1-4.618-4.862V8.1A4.886,4.886,0,0,1,17.2,3.241h24.21v9.431a8.105,8.105,0,0,0,8.1,8.1h9.431v8.589a1.621,1.621,0,1,0,3.241,0V19.122a1.674,1.674,0,0,0-.47-1.151L44.362.648,44.2.486A1.657,1.657,0,0,0,43.033,0a.551.551,0,0,0-.162.016H17.2a8.105,8.105,0,0,0-8.1,8.1V63.038a8.1,8.1,0,0,0,7.7,8.086c.13,0,.259.016.405.016H54.069a8.105,8.105,0,0,0,8.1-8.1v-2.9A1.632,1.632,0,0,0,60.551,58.5Zm-15.9-45.828V5.526L56.678,17.534H49.515A4.876,4.876,0,0,1,44.654,12.672Z" fill="#555151"/>
    <path id="Path_8353" data-name="Path 8353" d="M254.758,183.356l-2.2-2.528a1.616,1.616,0,0,0-1.118-.551,1.524,1.524,0,0,0-1.167.405l-21.212,18.555a1.527,1.527,0,0,0-.519.891l-1.7,8.022a1.663,1.663,0,0,0,.357,1.394,1.638,1.638,0,0,0,1.232.567h.1l8.313-.47a1.582,1.582,0,0,0,.972-.405l21.212-18.571a1.616,1.616,0,0,0,.551-1.118,1.524,1.524,0,0,0-.405-1.167ZM236.09,206.432l-5.656.324,1.151-5.445,19.576-17.145,4.489,5.121Z" transform="translate(-182.426 -151.059)" fill="#555151"/>
    <path id="Path_8354" data-name="Path 8354" d="M75.821,156.341H89.433a1.621,1.621,0,0,0,0-3.241H75.821a1.621,1.621,0,1,0,0,3.241Z" transform="translate(-54.551 -128.29)" fill="#080d42"/>
    <path id="Path_8355" data-name="Path 8355" d="M104.565,218.9H75.721a1.62,1.62,0,1,0,0,3.241h28.845a1.625,1.625,0,0,0,1.62-1.62A1.6,1.6,0,0,0,104.565,218.9Z" transform="translate(-54.467 -183.427)" fill="#080d42"/>
    <path id="Path_8356" data-name="Path 8356" d="M95.526,284.6H75.821a1.62,1.62,0,1,0,0,3.241H95.526a1.62,1.62,0,1,0,0-3.241Z" transform="translate(-54.551 -238.48)" fill="#080d42"/>
    <path id="Path_8357" data-name="Path 8357" d="M95.526,350.4H75.821a1.62,1.62,0,1,0,0,3.241H95.526a1.62,1.62,0,1,0,0-3.241Z" transform="translate(-54.551 -293.618)" fill="#080d42"/>
  </g>
</svg>
