<svg xmlns="http://www.w3.org/2000/svg" width="50.129" height="87.18" viewBox="0 0 50.129 87.18">
  <g id="smartphone-yellow" transform="translate(-85)">
    <path id="Path_8361" data-name="Path 8361" d="M103.518,91.963V23.135a7,7,0,0,1,7-7h30.121A6.987,6.987,0,0,0,133.661,9.6H101.8a7,7,0,0,0-7,7V85.425a7,7,0,0,0,7,7h1.744A3.22,3.22,0,0,1,103.518,91.963Z" transform="translate(-7.664 -7.508)" fill="#f4f4f4"/>
    <path id="Path_8362" data-name="Path 8362" d="M181.2,347.259H172.68a2.179,2.179,0,1,1,0-4.359H181.2a2.179,2.179,0,1,1,0,4.359Z" transform="translate(-66.865 -268.165)" fill="#080d42"/>
    <path id="Path_8363" data-name="Path 8363" d="M135.129,9.176A9.162,9.162,0,0,0,125.953,0H94.176A9.162,9.162,0,0,0,85,9.176V78a9.162,9.162,0,0,0,9.176,9.176h31.777A9.162,9.162,0,0,0,135.129,78Zm-45.77,6.517H130.77v51H89.359ZM94.132,4.359H126a4.721,4.721,0,0,1,4.773,4.664v2.31H89.359V9.089a4.716,4.716,0,0,1,4.686-4.73ZM126,82.821H94.132a4.857,4.857,0,0,1-4.773-4.9V71.052H130.77v6.865A4.857,4.857,0,0,1,126,82.821Z" fill="#555151"/>
  </g>
</svg>
